<mxfile host="drawio-plugin" modified="2021-05-30T15:39:55.631Z" agent="5.0 (Windows NT 6.2; Win64; x64) AppleWebKit/537.36 (KHTML, like Gecko) Chrome/89.0.4389.90 Safari/537.36" etag="osoDLEHFgVF8VNq0ytan" version="14.6.6" type="embed"><diagram id="YZBHm6nzpL_H-jKKXiZS" name="第 1 页"><mxGraphModel dx="2242" dy="527" grid="1" gridSize="10" guides="1" tooltips="1" connect="1" arrows="1" fold="1" page="1" pageScale="1" pageWidth="827" pageHeight="1169" math="0" shadow="0"><root><mxCell id="0"/><mxCell id="1" parent="0"/><mxCell id="9viREh3nEAOAV7O1oCq8-130" style="edgeStyle=orthogonalEdgeStyle;curved=1;rounded=0;orthogonalLoop=1;jettySize=auto;html=1;exitX=1;exitY=0.5;exitDx=0;exitDy=0;entryX=0;entryY=0.5;entryDx=0;entryDy=0;" parent="1" source="9viREh3nEAOAV7O1oCq8-4" target="9viREh3nEAOAV7O1oCq8-12" edge="1"><mxGeometry relative="1" as="geometry"/></mxCell><mxCell id="9viREh3nEAOAV7O1oCq8-132" style="edgeStyle=orthogonalEdgeStyle;curved=1;rounded=0;orthogonalLoop=1;jettySize=auto;html=1;entryX=0;entryY=0.5;entryDx=0;entryDy=0;" parent="1" source="9viREh3nEAOAV7O1oCq8-4" target="9viREh3nEAOAV7O1oCq8-14" edge="1"><mxGeometry relative="1" as="geometry"/></mxCell><mxCell id="9viREh3nEAOAV7O1oCq8-134" style="edgeStyle=orthogonalEdgeStyle;curved=1;rounded=0;orthogonalLoop=1;jettySize=auto;html=1;entryX=0.032;entryY=0.48;entryDx=0;entryDy=0;entryPerimeter=0;" parent="1" source="9viREh3nEAOAV7O1oCq8-4" target="9viREh3nEAOAV7O1oCq8-16" edge="1"><mxGeometry relative="1" as="geometry"/></mxCell><mxCell id="9viREh3nEAOAV7O1oCq8-136" style="edgeStyle=orthogonalEdgeStyle;curved=1;rounded=0;orthogonalLoop=1;jettySize=auto;html=1;exitX=1;exitY=0.5;exitDx=0;exitDy=0;entryX=0.027;entryY=0.49;entryDx=0;entryDy=0;entryPerimeter=0;" parent="1" source="9viREh3nEAOAV7O1oCq8-4" target="9viREh3nEAOAV7O1oCq8-18" edge="1"><mxGeometry relative="1" as="geometry"/></mxCell><mxCell id="9viREh3nEAOAV7O1oCq8-138" style="edgeStyle=orthogonalEdgeStyle;curved=1;rounded=0;orthogonalLoop=1;jettySize=auto;html=1;entryX=0.008;entryY=0.52;entryDx=0;entryDy=0;entryPerimeter=0;" parent="1" source="9viREh3nEAOAV7O1oCq8-4" target="9viREh3nEAOAV7O1oCq8-20" edge="1"><mxGeometry relative="1" as="geometry"/></mxCell><mxCell id="9viREh3nEAOAV7O1oCq8-140" style="edgeStyle=orthogonalEdgeStyle;curved=1;rounded=0;orthogonalLoop=1;jettySize=auto;html=1;entryX=0.005;entryY=0.49;entryDx=0;entryDy=0;entryPerimeter=0;" parent="1" source="9viREh3nEAOAV7O1oCq8-4" target="9viREh3nEAOAV7O1oCq8-23" edge="1"><mxGeometry relative="1" as="geometry"/></mxCell><mxCell id="9viREh3nEAOAV7O1oCq8-4" value="0" style="ellipse;whiteSpace=wrap;html=1;aspect=fixed;" parent="1" vertex="1"><mxGeometry x="-1630" y="230" width="70" height="70" as="geometry"/></mxCell><mxCell id="9viREh3nEAOAV7O1oCq8-64" style="edgeStyle=orthogonalEdgeStyle;curved=1;rounded=0;orthogonalLoop=1;jettySize=auto;html=1;entryX=0.013;entryY=0.63;entryDx=0;entryDy=0;entryPerimeter=0;" parent="1" source="9viREh3nEAOAV7O1oCq8-5" target="9viREh3nEAOAV7O1oCq8-61" edge="1"><mxGeometry relative="1" as="geometry"><Array as="points"><mxPoint x="-1130" y="45"/><mxPoint x="-1130" y="258"/></Array></mxGeometry></mxCell><mxCell id="9viREh3nEAOAV7O1oCq8-83" style="edgeStyle=orthogonalEdgeStyle;curved=1;rounded=0;orthogonalLoop=1;jettySize=auto;html=1;entryX=-0.005;entryY=0.69;entryDx=0;entryDy=0;entryPerimeter=0;" parent="1" source="9viREh3nEAOAV7O1oCq8-5" target="9viREh3nEAOAV7O1oCq8-79" edge="1"><mxGeometry relative="1" as="geometry"><Array as="points"><mxPoint x="-1130" y="45"/><mxPoint x="-1130" y="124"/></Array></mxGeometry></mxCell><mxCell id="9viREh3nEAOAV7O1oCq8-5" value="1" style="ellipse;whiteSpace=wrap;html=1;aspect=fixed;" parent="1" vertex="1"><mxGeometry x="-1310" y="10" width="70" height="70" as="geometry"/></mxCell><mxCell id="9viREh3nEAOAV7O1oCq8-65" style="edgeStyle=orthogonalEdgeStyle;curved=1;rounded=0;orthogonalLoop=1;jettySize=auto;html=1;entryX=-0.12;entryY=0.63;entryDx=0;entryDy=0;entryPerimeter=0;" parent="1" source="9viREh3nEAOAV7O1oCq8-6" target="9viREh3nEAOAV7O1oCq8-61" edge="1"><mxGeometry relative="1" as="geometry"><Array as="points"><mxPoint x="-1130" y="155"/><mxPoint x="-1130" y="258"/></Array></mxGeometry></mxCell><mxCell id="9viREh3nEAOAV7O1oCq8-66" style="edgeStyle=orthogonalEdgeStyle;curved=1;rounded=0;orthogonalLoop=1;jettySize=auto;html=1;entryX=-0.013;entryY=0.525;entryDx=0;entryDy=0;entryPerimeter=0;" parent="1" source="9viREh3nEAOAV7O1oCq8-6" target="9viREh3nEAOAV7O1oCq8-41" edge="1"><mxGeometry relative="1" as="geometry"/></mxCell><mxCell id="9viREh3nEAOAV7O1oCq8-6" value="2" style="ellipse;whiteSpace=wrap;html=1;aspect=fixed;" parent="1" vertex="1"><mxGeometry x="-1310" y="120" width="70" height="70" as="geometry"/></mxCell><mxCell id="9viREh3nEAOAV7O1oCq8-124" style="edgeStyle=orthogonalEdgeStyle;curved=1;rounded=0;orthogonalLoop=1;jettySize=auto;html=1;exitX=1;exitY=0.5;exitDx=0;exitDy=0;entryX=-0.013;entryY=0.75;entryDx=0;entryDy=0;entryPerimeter=0;" parent="1" source="9viREh3nEAOAV7O1oCq8-7" target="9viREh3nEAOAV7O1oCq8-123" edge="1"><mxGeometry relative="1" as="geometry"/></mxCell><mxCell id="9viREh3nEAOAV7O1oCq8-7" value="3" style="ellipse;whiteSpace=wrap;html=1;aspect=fixed;" parent="1" vertex="1"><mxGeometry x="-1310" y="230" width="70" height="70" as="geometry"/></mxCell><mxCell id="9viREh3nEAOAV7O1oCq8-70" style="edgeStyle=orthogonalEdgeStyle;curved=1;rounded=0;orthogonalLoop=1;jettySize=auto;html=1;exitX=1;exitY=0.5;exitDx=0;exitDy=0;entryX=-0.013;entryY=0.405;entryDx=0;entryDy=0;entryPerimeter=0;" parent="1" source="9viREh3nEAOAV7O1oCq8-8" target="9viREh3nEAOAV7O1oCq8-41" edge="1"><mxGeometry relative="1" as="geometry"/></mxCell><mxCell id="4" style="edgeStyle=orthogonalEdgeStyle;curved=1;rounded=0;orthogonalLoop=1;jettySize=auto;html=1;entryX=0.007;entryY=0.54;entryDx=0;entryDy=0;entryPerimeter=0;" parent="1" source="9viREh3nEAOAV7O1oCq8-8" target="2" edge="1"><mxGeometry relative="1" as="geometry"><Array as="points"><mxPoint x="-1160" y="375"/><mxPoint x="-1160" y="281"/></Array></mxGeometry></mxCell><mxCell id="9viREh3nEAOAV7O1oCq8-8" value="4" style="ellipse;whiteSpace=wrap;html=1;aspect=fixed;" parent="1" vertex="1"><mxGeometry x="-1310" y="340" width="70" height="70" as="geometry"/></mxCell><mxCell id="9viREh3nEAOAV7O1oCq8-72" style="edgeStyle=orthogonalEdgeStyle;curved=1;rounded=0;orthogonalLoop=1;jettySize=auto;html=1;exitX=1;exitY=0.5;exitDx=0;exitDy=0;entryX=-0.013;entryY=0.47;entryDx=0;entryDy=0;entryPerimeter=0;" parent="1" source="9viREh3nEAOAV7O1oCq8-9" target="9viREh3nEAOAV7O1oCq8-61" edge="1"><mxGeometry relative="1" as="geometry"/></mxCell><mxCell id="9viREh3nEAOAV7O1oCq8-73" style="edgeStyle=orthogonalEdgeStyle;curved=1;rounded=0;orthogonalLoop=1;jettySize=auto;html=1;exitX=1;exitY=0.5;exitDx=0;exitDy=0;entryX=0.013;entryY=0.285;entryDx=0;entryDy=0;entryPerimeter=0;" parent="1" source="9viREh3nEAOAV7O1oCq8-9" target="9viREh3nEAOAV7O1oCq8-41" edge="1"><mxGeometry relative="1" as="geometry"/></mxCell><mxCell id="9viREh3nEAOAV7O1oCq8-9" value="5" style="ellipse;whiteSpace=wrap;html=1;aspect=fixed;" parent="1" vertex="1"><mxGeometry x="-1310" y="450" width="70" height="70" as="geometry"/></mxCell><mxCell id="9viREh3nEAOAV7O1oCq8-131" style="edgeStyle=orthogonalEdgeStyle;curved=1;rounded=0;orthogonalLoop=1;jettySize=auto;html=1;entryX=0;entryY=0.5;entryDx=0;entryDy=0;" parent="1" source="9viREh3nEAOAV7O1oCq8-12" target="9viREh3nEAOAV7O1oCq8-5" edge="1"><mxGeometry relative="1" as="geometry"/></mxCell><mxCell id="9viREh3nEAOAV7O1oCq8-12" value="insert" style="text;html=1;strokeColor=none;fillColor=none;align=center;verticalAlign=middle;whiteSpace=wrap;rounded=0;" parent="1" vertex="1"><mxGeometry x="-1450" y="70" width="40" height="20" as="geometry"/></mxCell><mxCell id="9viREh3nEAOAV7O1oCq8-133" style="edgeStyle=orthogonalEdgeStyle;curved=1;rounded=0;orthogonalLoop=1;jettySize=auto;html=1;entryX=0;entryY=0.5;entryDx=0;entryDy=0;" parent="1" source="9viREh3nEAOAV7O1oCq8-14" target="9viREh3nEAOAV7O1oCq8-6" edge="1"><mxGeometry relative="1" as="geometry"/></mxCell><mxCell id="9viREh3nEAOAV7O1oCq8-14" value="delete" style="text;html=1;strokeColor=none;fillColor=none;align=center;verticalAlign=middle;whiteSpace=wrap;rounded=0;" parent="1" vertex="1"><mxGeometry x="-1450" y="160" width="40" height="20" as="geometry"/></mxCell><mxCell id="9viREh3nEAOAV7O1oCq8-135" style="edgeStyle=orthogonalEdgeStyle;curved=1;rounded=0;orthogonalLoop=1;jettySize=auto;html=1;entryX=0;entryY=0.5;entryDx=0;entryDy=0;" parent="1" source="9viREh3nEAOAV7O1oCq8-16" target="9viREh3nEAOAV7O1oCq8-7" edge="1"><mxGeometry relative="1" as="geometry"/></mxCell><mxCell id="9viREh3nEAOAV7O1oCq8-16" value="update" style="text;html=1;align=center;verticalAlign=middle;resizable=0;points=[];autosize=1;" parent="1" vertex="1"><mxGeometry x="-1455" y="255" width="50" height="20" as="geometry"/></mxCell><mxCell id="9viREh3nEAOAV7O1oCq8-137" style="edgeStyle=orthogonalEdgeStyle;curved=1;rounded=0;orthogonalLoop=1;jettySize=auto;html=1;entryX=0;entryY=0.5;entryDx=0;entryDy=0;" parent="1" source="9viREh3nEAOAV7O1oCq8-18" target="9viREh3nEAOAV7O1oCq8-8" edge="1"><mxGeometry relative="1" as="geometry"/></mxCell><mxCell id="9viREh3nEAOAV7O1oCq8-18" value="find" style="text;html=1;align=center;verticalAlign=middle;resizable=0;points=[];autosize=1;" parent="1" vertex="1"><mxGeometry x="-1445" y="350" width="30" height="20" as="geometry"/></mxCell><mxCell id="9viREh3nEAOAV7O1oCq8-139" style="edgeStyle=orthogonalEdgeStyle;curved=1;rounded=0;orthogonalLoop=1;jettySize=auto;html=1;entryX=0;entryY=0.5;entryDx=0;entryDy=0;" parent="1" source="9viREh3nEAOAV7O1oCq8-20" target="9viREh3nEAOAV7O1oCq8-9" edge="1"><mxGeometry relative="1" as="geometry"/></mxCell><mxCell id="9viREh3nEAOAV7O1oCq8-20" value="count" style="text;html=1;align=center;verticalAlign=middle;resizable=0;points=[];autosize=1;" parent="1" vertex="1"><mxGeometry x="-1455" y="440" width="50" height="20" as="geometry"/></mxCell><mxCell id="9viREh3nEAOAV7O1oCq8-75" style="edgeStyle=orthogonalEdgeStyle;curved=1;rounded=0;orthogonalLoop=1;jettySize=auto;html=1;entryX=0.013;entryY=0.325;entryDx=0;entryDy=0;entryPerimeter=0;" parent="1" source="9viREh3nEAOAV7O1oCq8-21" target="9viREh3nEAOAV7O1oCq8-41" edge="1"><mxGeometry relative="1" as="geometry"><Array as="points"><mxPoint x="-1140" y="595"/><mxPoint x="-1140" y="447"/></Array></mxGeometry></mxCell><mxCell id="7" style="edgeStyle=orthogonalEdgeStyle;curved=1;rounded=0;orthogonalLoop=1;jettySize=auto;html=1;entryX=-0.02;entryY=0.62;entryDx=0;entryDy=0;entryPerimeter=0;" parent="1" source="9viREh3nEAOAV7O1oCq8-21" target="2" edge="1"><mxGeometry relative="1" as="geometry"/></mxCell><mxCell id="9viREh3nEAOAV7O1oCq8-21" value="6" style="ellipse;whiteSpace=wrap;html=1;aspect=fixed;" parent="1" vertex="1"><mxGeometry x="-1310" y="560" width="70" height="70" as="geometry"/></mxCell><mxCell id="9viREh3nEAOAV7O1oCq8-141" style="edgeStyle=orthogonalEdgeStyle;curved=1;rounded=0;orthogonalLoop=1;jettySize=auto;html=1;entryX=0;entryY=0.5;entryDx=0;entryDy=0;" parent="1" source="9viREh3nEAOAV7O1oCq8-23" target="9viREh3nEAOAV7O1oCq8-21" edge="1"><mxGeometry relative="1" as="geometry"/></mxCell><mxCell id="9viREh3nEAOAV7O1oCq8-23" value="page" style="text;html=1;align=center;verticalAlign=middle;resizable=0;points=[];autosize=1;" parent="1" vertex="1"><mxGeometry x="-1450" y="534.5" width="40" height="20" as="geometry"/></mxCell><mxCell id="9viREh3nEAOAV7O1oCq8-25" value="terminal" style="ellipse;whiteSpace=wrap;html=1;aspect=fixed;" parent="1" vertex="1"><mxGeometry x="-855" y="10" width="70" height="70" as="geometry"/></mxCell><mxCell id="9viREh3nEAOAV7O1oCq8-104" style="edgeStyle=orthogonalEdgeStyle;curved=1;rounded=0;orthogonalLoop=1;jettySize=auto;html=1;exitX=0.5;exitY=0;exitDx=0;exitDy=0;entryX=0.995;entryY=0.39;entryDx=0;entryDy=0;entryPerimeter=0;" parent="1" source="9viREh3nEAOAV7O1oCq8-28" target="9viREh3nEAOAV7O1oCq8-98" edge="1"><mxGeometry relative="1" as="geometry"/></mxCell><mxCell id="9viREh3nEAOAV7O1oCq8-111" style="edgeStyle=orthogonalEdgeStyle;curved=1;rounded=0;orthogonalLoop=1;jettySize=auto;html=1;exitX=1;exitY=0;exitDx=0;exitDy=0;entryX=0.5;entryY=1;entryDx=0;entryDy=0;" parent="1" source="9viREh3nEAOAV7O1oCq8-28" target="9viREh3nEAOAV7O1oCq8-109" edge="1"><mxGeometry relative="1" as="geometry"/></mxCell><mxCell id="9viREh3nEAOAV7O1oCq8-28" value="8" style="ellipse;whiteSpace=wrap;html=1;aspect=fixed;" parent="1" vertex="1"><mxGeometry x="-860" y="540" width="70" height="70" as="geometry"/></mxCell><mxCell id="9viREh3nEAOAV7O1oCq8-115" style="edgeStyle=orthogonalEdgeStyle;curved=1;rounded=0;orthogonalLoop=1;jettySize=auto;html=1;exitX=0.5;exitY=1;exitDx=0;exitDy=0;entryX=-0.003;entryY=0.57;entryDx=0;entryDy=0;entryPerimeter=0;" parent="1" source="9viREh3nEAOAV7O1oCq8-31" target="9viREh3nEAOAV7O1oCq8-114" edge="1"><mxGeometry relative="1" as="geometry"/></mxCell><mxCell id="9viREh3nEAOAV7O1oCq8-117" style="edgeStyle=orthogonalEdgeStyle;curved=1;rounded=0;orthogonalLoop=1;jettySize=auto;html=1;exitX=1;exitY=0.5;exitDx=0;exitDy=0;entryX=0.5;entryY=1;entryDx=0;entryDy=0;" parent="1" source="9viREh3nEAOAV7O1oCq8-31" target="9viREh3nEAOAV7O1oCq8-109" edge="1"><mxGeometry relative="1" as="geometry"/></mxCell><mxCell id="9viREh3nEAOAV7O1oCq8-31" value="9" style="ellipse;whiteSpace=wrap;html=1;aspect=fixed;" parent="1" vertex="1"><mxGeometry x="-855" y="730" width="70" height="70" as="geometry"/></mxCell><mxCell id="9viREh3nEAOAV7O1oCq8-89" style="edgeStyle=orthogonalEdgeStyle;curved=1;rounded=0;orthogonalLoop=1;jettySize=auto;html=1;entryX=0;entryY=0.5;entryDx=0;entryDy=0;" parent="1" source="9viREh3nEAOAV7O1oCq8-41" target="9viREh3nEAOAV7O1oCq8-28" edge="1"><mxGeometry relative="1" as="geometry"/></mxCell><mxCell id="9viREh3nEAOAV7O1oCq8-41" value="By" style="text;html=1;align=center;verticalAlign=middle;resizable=0;points=[];autosize=1;" parent="1" vertex="1"><mxGeometry x="-1055" y="440" width="30" height="20" as="geometry"/></mxCell><mxCell id="9viREh3nEAOAV7O1oCq8-88" style="edgeStyle=orthogonalEdgeStyle;curved=1;rounded=0;orthogonalLoop=1;jettySize=auto;html=1;entryX=0;entryY=0.5;entryDx=0;entryDy=0;" parent="1" source="9viREh3nEAOAV7O1oCq8-61" target="9viREh3nEAOAV7O1oCq8-25" edge="1"><mxGeometry relative="1" as="geometry"/></mxCell><mxCell id="9viREh3nEAOAV7O1oCq8-61" value="All" style="text;html=1;align=center;verticalAlign=middle;resizable=0;points=[];autosize=1;" parent="1" vertex="1"><mxGeometry x="-1055" y="190" width="30" height="20" as="geometry"/></mxCell><mxCell id="9viREh3nEAOAV7O1oCq8-86" style="edgeStyle=orthogonalEdgeStyle;curved=1;rounded=0;orthogonalLoop=1;jettySize=auto;html=1;entryX=0;entryY=0.5;entryDx=0;entryDy=0;" parent="1" source="9viREh3nEAOAV7O1oCq8-79" target="9viREh3nEAOAV7O1oCq8-25" edge="1"><mxGeometry relative="1" as="geometry"/></mxCell><mxCell id="9viREh3nEAOAV7O1oCq8-79" value="EOF" style="text;html=1;align=center;verticalAlign=middle;resizable=0;points=[];autosize=1;" parent="1" vertex="1"><mxGeometry x="-1060" y="110" width="40" height="20" as="geometry"/></mxCell><mxCell id="9viREh3nEAOAV7O1oCq8-113" style="edgeStyle=orthogonalEdgeStyle;curved=1;rounded=0;orthogonalLoop=1;jettySize=auto;html=1;entryX=0.5;entryY=0;entryDx=0;entryDy=0;" parent="1" source="9viREh3nEAOAV7O1oCq8-94" target="9viREh3nEAOAV7O1oCq8-31" edge="1"><mxGeometry relative="1" as="geometry"/></mxCell><mxCell id="9viREh3nEAOAV7O1oCq8-94" value="[_0-9a-zA-Z]+?OrderBy" style="text;html=1;align=center;verticalAlign=middle;resizable=0;points=[];autosize=1;" parent="1" vertex="1"><mxGeometry x="-815" y="610" width="140" height="20" as="geometry"/></mxCell><mxCell id="9viREh3nEAOAV7O1oCq8-95" style="edgeStyle=orthogonalEdgeStyle;curved=1;rounded=0;orthogonalLoop=1;jettySize=auto;html=1;exitX=1;exitY=0.5;exitDx=0;exitDy=0;entryX=0.5;entryY=0;entryDx=0;entryDy=0;" parent="1" source="9viREh3nEAOAV7O1oCq8-28" target="9viREh3nEAOAV7O1oCq8-94" edge="1"><mxGeometry relative="1" as="geometry"><mxPoint x="-785" y="545" as="sourcePoint"/><mxPoint x="-820" y="730" as="targetPoint"/></mxGeometry></mxCell><mxCell id="9viREh3nEAOAV7O1oCq8-105" style="edgeStyle=orthogonalEdgeStyle;curved=1;rounded=0;orthogonalLoop=1;jettySize=auto;html=1;exitX=0.005;exitY=0.71;exitDx=0;exitDy=0;exitPerimeter=0;" parent="1" source="9viREh3nEAOAV7O1oCq8-98" edge="1"><mxGeometry relative="1" as="geometry"><mxPoint x="-825" y="540" as="targetPoint"/><Array as="points"><mxPoint x="-905" y="504"/><mxPoint x="-905" y="520"/><mxPoint x="-825" y="520"/></Array></mxGeometry></mxCell><mxCell id="9viREh3nEAOAV7O1oCq8-98" value="[_0-9a-zA-Z]+?(And|Or)" style="text;html=1;align=center;verticalAlign=middle;resizable=0;points=[];autosize=1;" parent="1" vertex="1"><mxGeometry x="-895" y="490" width="140" height="20" as="geometry"/></mxCell><mxCell id="9viREh3nEAOAV7O1oCq8-112" style="edgeStyle=orthogonalEdgeStyle;curved=1;rounded=0;orthogonalLoop=1;jettySize=auto;html=1;exitX=0.5;exitY=0;exitDx=0;exitDy=0;entryX=1;entryY=0.5;entryDx=0;entryDy=0;" parent="1" source="9viREh3nEAOAV7O1oCq8-109" target="9viREh3nEAOAV7O1oCq8-25" edge="1"><mxGeometry relative="1" as="geometry"/></mxCell><mxCell id="9viREh3nEAOAV7O1oCq8-109" value="&lt;span style=&quot;color: rgb(0 , 0 , 0) ; font-family: &amp;#34;helvetica&amp;#34; ; font-size: 12px ; font-style: normal ; font-weight: 400 ; letter-spacing: normal ; text-align: center ; text-indent: 0px ; text-transform: none ; word-spacing: 0px ; background-color: rgb(248 , 249 , 250) ; display: inline ; float: none&quot;&gt;[_0-9a-zA-Z]+?EOF&lt;/span&gt;" style="text;whiteSpace=wrap;html=1;" parent="1" vertex="1"><mxGeometry x="-660" y="150" width="150" height="30" as="geometry"/></mxCell><mxCell id="9viREh3nEAOAV7O1oCq8-116" style="edgeStyle=orthogonalEdgeStyle;curved=1;rounded=0;orthogonalLoop=1;jettySize=auto;html=1;entryX=0.5;entryY=1;entryDx=0;entryDy=0;exitX=0.997;exitY=0.45;exitDx=0;exitDy=0;exitPerimeter=0;" parent="1" source="9viREh3nEAOAV7O1oCq8-114" target="9viREh3nEAOAV7O1oCq8-31" edge="1"><mxGeometry relative="1" as="geometry"/></mxCell><mxCell id="9viREh3nEAOAV7O1oCq8-114" value="[_0-9a-zA-Z]+?And" style="text;html=1;align=center;verticalAlign=middle;resizable=0;points=[];autosize=1;" parent="1" vertex="1"><mxGeometry x="-880" y="850" width="120" height="20" as="geometry"/></mxCell><mxCell id="9viREh3nEAOAV7O1oCq8-120" style="edgeStyle=orthogonalEdgeStyle;curved=1;rounded=0;orthogonalLoop=1;jettySize=auto;html=1;exitX=0.5;exitY=0;exitDx=0;exitDy=0;entryX=0.992;entryY=0.51;entryDx=0;entryDy=0;entryPerimeter=0;" parent="1" source="9viREh3nEAOAV7O1oCq8-118" target="9viREh3nEAOAV7O1oCq8-119" edge="1"><mxGeometry relative="1" as="geometry"/></mxCell><mxCell id="9viREh3nEAOAV7O1oCq8-122" style="edgeStyle=orthogonalEdgeStyle;curved=1;rounded=0;orthogonalLoop=1;jettySize=auto;html=1;entryX=0.5;entryY=1;entryDx=0;entryDy=0;" parent="1" source="9viREh3nEAOAV7O1oCq8-118" target="9viREh3nEAOAV7O1oCq8-109" edge="1"><mxGeometry relative="1" as="geometry"/></mxCell><mxCell id="9viREh3nEAOAV7O1oCq8-118" value="7" style="ellipse;whiteSpace=wrap;html=1;aspect=fixed;" parent="1" vertex="1"><mxGeometry x="-855" y="342" width="70" height="70" as="geometry"/></mxCell><mxCell id="9viREh3nEAOAV7O1oCq8-121" style="edgeStyle=orthogonalEdgeStyle;curved=1;rounded=0;orthogonalLoop=1;jettySize=auto;html=1;entryX=0.5;entryY=0;entryDx=0;entryDy=0;exitX=0.005;exitY=0.47;exitDx=0;exitDy=0;exitPerimeter=0;" parent="1" source="9viREh3nEAOAV7O1oCq8-119" target="9viREh3nEAOAV7O1oCq8-118" edge="1"><mxGeometry relative="1" as="geometry"><Array as="points"><mxPoint x="-900" y="301"/><mxPoint x="-900" y="322"/><mxPoint x="-820" y="322"/></Array></mxGeometry></mxCell><mxCell id="9viREh3nEAOAV7O1oCq8-119" value="[_0-9a-zA-Z]+?(And|Or)" style="text;html=1;align=center;verticalAlign=middle;resizable=0;points=[];autosize=1;" parent="1" vertex="1"><mxGeometry x="-890" y="292" width="140" height="20" as="geometry"/></mxCell><mxCell id="9viREh3nEAOAV7O1oCq8-125" style="edgeStyle=orthogonalEdgeStyle;curved=1;rounded=0;orthogonalLoop=1;jettySize=auto;html=1;entryX=0;entryY=0.5;entryDx=0;entryDy=0;" parent="1" source="9viREh3nEAOAV7O1oCq8-123" target="9viREh3nEAOAV7O1oCq8-118" edge="1"><mxGeometry relative="1" as="geometry"/></mxCell><mxCell id="9viREh3nEAOAV7O1oCq8-123" value="By" style="text;html=1;align=center;verticalAlign=middle;resizable=0;points=[];autosize=1;" parent="1" vertex="1"><mxGeometry x="-1055" y="350" width="30" height="20" as="geometry"/></mxCell><mxCell id="9" style="edgeStyle=orthogonalEdgeStyle;curved=1;rounded=0;orthogonalLoop=1;jettySize=auto;html=1;entryX=0;entryY=0.5;entryDx=0;entryDy=0;" parent="1" source="2" target="8" edge="1"><mxGeometry relative="1" as="geometry"/></mxCell><mxCell id="2" value="All" style="text;html=1;align=center;verticalAlign=middle;resizable=0;points=[];autosize=1;" parent="1" vertex="1"><mxGeometry x="-1055" y="270" width="30" height="20" as="geometry"/></mxCell><mxCell id="12" style="edgeStyle=orthogonalEdgeStyle;curved=1;rounded=0;orthogonalLoop=1;jettySize=auto;html=1;entryX=0.573;entryY=0;entryDx=0;entryDy=0;entryPerimeter=0;" parent="1" source="8" target="10" edge="1"><mxGeometry relative="1" as="geometry"/></mxCell><mxCell id="15" style="edgeStyle=orthogonalEdgeStyle;curved=1;rounded=0;orthogonalLoop=1;jettySize=auto;html=1;exitX=0.5;exitY=0;exitDx=0;exitDy=0;entryX=-0.01;entryY=0.7;entryDx=0;entryDy=0;entryPerimeter=0;" parent="1" source="8" target="9viREh3nEAOAV7O1oCq8-79" edge="1"><mxGeometry relative="1" as="geometry"/></mxCell><mxCell id="8" value="10" style="ellipse;whiteSpace=wrap;html=1;aspect=fixed;" parent="1" vertex="1"><mxGeometry x="-860" y="160" width="70" height="70" as="geometry"/></mxCell><mxCell id="14" style="edgeStyle=orthogonalEdgeStyle;curved=1;rounded=0;orthogonalLoop=1;jettySize=auto;html=1;entryX=0.5;entryY=0;entryDx=0;entryDy=0;" parent="1" source="10" target="9viREh3nEAOAV7O1oCq8-31" edge="1"><mxGeometry relative="1" as="geometry"><Array as="points"><mxPoint x="-703" y="330"/><mxPoint x="-660" y="330"/><mxPoint x="-660" y="700"/><mxPoint x="-820" y="700"/></Array></mxGeometry></mxCell><mxCell id="10" value="OrderBy" style="text;html=1;align=center;verticalAlign=middle;resizable=0;points=[];autosize=1;strokeColor=none;" parent="1" vertex="1"><mxGeometry x="-750" y="220" width="60" height="20" as="geometry"/></mxCell></root></mxGraphModel></diagram></mxfile>